<svg xmlns="http://www.w3.org/2000/svg" width="71.4mm" height="11.82mm" viewBox="0 0 202.39 33.5"><defs><style>.a{fill:#1b1d51;}.b{fill:#5fbf81;}.c{fill:#262262;}</style></defs><title>Party Wall Go Logo Dark</title><path class="a" d="M11.74,5.4a8.4,8.4,0,0,1,6.12,2.45,8.12,8.12,0,0,1,2.48,6,8.12,8.12,0,0,1-2.48,6,8.4,8.4,0,0,1-6.12,2.45H7.31V30.6h-5V5.4Zm0,12.28a3.46,3.46,0,0,0,2.62-1.1,3.78,3.78,0,0,0,1.05-2.72,3.78,3.78,0,0,0-1.05-2.74A3.48,3.48,0,0,0,11.74,10H7.31v7.64Z" transform="translate(-2.34 -4.32)"/><path class="a" d="M34.56,12.6H39.2v18H34.56V28.48a7.07,7.07,0,0,1-5.87,2.62,8.12,8.12,0,0,1-6.17-2.75,9.52,9.52,0,0,1-2.58-6.75,9.52,9.52,0,0,1,2.58-6.75,8.12,8.12,0,0,1,6.17-2.75,7.07,7.07,0,0,1,5.87,2.62ZM26,25.25a5.18,5.18,0,0,0,7.15,0,4.91,4.91,0,0,0,1.42-3.65A4.91,4.91,0,0,0,33.14,18,5.18,5.18,0,0,0,26,18a5,5,0,0,0-1.4,3.65A5,5,0,0,0,26,25.25Z" transform="translate(-2.34 -4.32)"/><path class="a" d="M46.76,15.7a4.88,4.88,0,0,1,2.15-2.6,6.56,6.56,0,0,1,3.33-.86v5.18a5.47,5.47,0,0,0-3.8.87A4.12,4.12,0,0,0,46.76,22v8.6H42.12v-18h4.64Z" transform="translate(-2.34 -4.32)"/><path class="a" d="M64.44,17.06H60.37v7.49a1.79,1.79,0,0,0,.47,1.37,2.16,2.16,0,0,0,1.37.49,21.23,21.23,0,0,0,2.23,0V30.6q-4.78.54-6.75-.9t-2-5.15V17.06H52.6V12.6h3.13V9l4.64-1.4v5h4.07Z" transform="translate(-2.34 -4.32)"/><path class="a" d="M78.55,12.6h5L77,30.63a11.85,11.85,0,0,1-3.73,5.6,8.5,8.5,0,0,1-5.77,1.57V33.48a4.69,4.69,0,0,0,3-.79A5.52,5.52,0,0,0,72.18,30L64.8,12.6h5.08l4.69,12.1Z" transform="translate(-2.34 -4.32)"/><path class="a" d="M89.51,30.6,82.83,5.4H88l4.85,18.68L98.13,5.4h4.31L107.72,24,112.5,5.4h4.78l-6.62,25.2H105l-4.77-16.72L95.5,30.6Z" transform="translate(-2.34 -4.32)"/><path class="a" d="M130.61,12.6h4.64v18h-4.64V28.48a7.08,7.08,0,0,1-5.87,2.62,8.16,8.16,0,0,1-6.18-2.75A9.55,9.55,0,0,1,116,21.6a9.55,9.55,0,0,1,2.57-6.75,8.16,8.16,0,0,1,6.18-2.75,7.08,7.08,0,0,1,5.87,2.62ZM122,25.25a4.78,4.78,0,0,0,3.56,1.43,4.84,4.84,0,0,0,3.58-1.43,4.92,4.92,0,0,0,1.43-3.65A4.92,4.92,0,0,0,129.18,18a4.84,4.84,0,0,0-3.58-1.43A4.78,4.78,0,0,0,122,18a4.94,4.94,0,0,0-1.41,3.65A4.94,4.94,0,0,0,122,25.25Z" transform="translate(-2.34 -4.32)"/><path class="a" d="M138.17,30.6V4.32h4.64V30.6Z" transform="translate(-2.34 -4.32)"/><path class="a" d="M145.76,30.6V4.32h4.65V30.6Z" transform="translate(-2.34 -4.32)"/><path class="b" d="M178.31,17.06v2a11.67,11.67,0,0,1-3.46,8.75,12.29,12.29,0,0,1-8.93,3.34,13.14,13.14,0,0,1-9.66-3.79A12.57,12.57,0,0,1,152.42,18,13,13,0,0,1,165.63,4.9a13.15,13.15,0,0,1,6.45,1.6,11.93,11.93,0,0,1,4.53,4.26l-4.24,2.45a6.73,6.73,0,0,0-2.72-2.52,8.42,8.42,0,0,0-4.05-1,8,8,0,0,0-5.92,2.36,8.14,8.14,0,0,0-2.33,6,7.92,7.92,0,0,0,2.36,5.88A8.52,8.52,0,0,0,166,26.24,8.35,8.35,0,0,0,170.73,25a6.38,6.38,0,0,0,2.57-3.51h-7.63v-4.4Z" transform="translate(-2.34 -4.32)"/><path class="b" d="M195.66,28.35a9.51,9.51,0,0,1-16.27-6.75,9.52,9.52,0,1,1,19,0A9.19,9.19,0,0,1,195.66,28.35Zm-10.24-3.19a4.66,4.66,0,0,0,3.47,1.41,4.72,4.72,0,0,0,3.49-1.41,4.8,4.8,0,0,0,1.41-3.56A4.8,4.8,0,0,0,192.38,18a4.72,4.72,0,0,0-3.49-1.41A4.66,4.66,0,0,0,185.42,18,4.82,4.82,0,0,0,184,21.6,4.82,4.82,0,0,0,185.42,25.16Z" transform="translate(-2.34 -4.32)"/><path class="c" d="M203.83,30.17a3,3,0,1,1,.9-2.16A2.95,2.95,0,0,1,203.83,30.17Z" transform="translate(-2.34 -4.32)"/></svg>